<svg xmlns="http://www.w3.org/2000/svg" version="1.1" xlink="http://www.w3.org/1999/xlink" width="100%" height="100%" preserveAspectRatio="xMidYMid meet" viewBox="2.7947024250352115e-8 0 127.30490112304688 146.99996948242188" overflow="visible"><defs id="SvgjsDefs34874"></defs><g id="SvgjsG34875" transform="scale(0.515970515970516)" opacity="1"><g id="SvgjsG34876" class="g0yVQq9vu" transform="translate(-1.9914509999999943, 0) scale(2.8489999999999998)" light-content="false" non-strokable="false" fill="#5a7670"><path d="M44 0l43.301 25v50L44 100 .699 75V25z"></path></g><g id="SvgjsG34877" class="7MqUU7yuwA" transform="translate(34.38172516826518, 40.102856836692) scale(2.794611713428897)" light-content="true" non-strokable="false" fill="#ffffff"><path d="M12 29.25a7.712 7.712 0 0 0 .78-.041 9.334 9.334 0 0 1 6.614-7.09c0-.04.006-.079.006-.119a7.334 7.334 0 0 0-7.4-7.25 7.252 7.252 0 1 0 0 14.5zm27.325-7.113c0-.147 0-.294-.006-.442a7.507 7.507 0 0 0-7.461-7.012c-.109 0-.22 0-.33.006a7.137 7.137 0 0 0-6.849 7.449 9.329 9.329 0 0 1 6.548 7.12 7.369 7.369 0 0 0 1.245.053c.1 0 .2-.02.3-.028a9.329 9.329 0 0 1 6.553-7.146zm-24.304 6.474a7.335 7.335 0 0 0 3.958-4.223 7.341 7.341 0 0 0-3.958 4.223zm13.957-.001a7.333 7.333 0 0 0-3.842-4.167 7.493 7.493 0 0 0 2.016 2.949 7.638 7.638 0 0 0 1.826 1.218zm-14.372 2.271c0 .04-.006.079-.006.119a7.4 7.4 0 0 0 14.8 0v-.1a9.493 9.493 0 0 1-6.512-7.1 7.569 7.569 0 0 0-.888-.05 7.712 7.712 0 0 0-.78.041 9.334 9.334 0 0 1-6.614 7.09zm36.614-1.672a7.712 7.712 0 0 0 .78.041A7.252 7.252 0 1 0 44.6 22c0 .04.006.079.006.119a9.334 9.334 0 0 1 6.614 7.09zm-16.248-.465a7.094 7.094 0 0 0 4-4.355 7.336 7.336 0 0 0-4 4.355zm10.049-4.356a7.335 7.335 0 0 0 3.958 4.223 7.341 7.341 0 0 0-3.958-4.223zM34.6 30.983V31a7.4 7.4 0 0 0 14.8 0c0-.04-.006-.079-.006-.119a9.334 9.334 0 0 1-6.614-7.09 7.321 7.321 0 0 0-1.6.006 9.083 9.083 0 0 1-6.58 7.186zM28.707 52.73a1 1 0 0 0-1.414 1.415l1.293 1.293-1.293 1.292a1 1 0 1 0 1.414 1.415l2-2a1 1 0 0 0 0-1.415zm-4.055-1.245a1 1 0 1 0-1.736.993l.907 1.587-1.587.908a1 1 0 0 0 .5 1.868.988.988 0 0 0 .5-.132l2.456-1.4a1 1 0 0 0 .372-1.365zm-2.952.563l-1.28-2.523a1 1 0 1 0-1.783.905l.827 1.631-1.63.828a1 1 0 0 0 .9 1.783l2.522-1.28a1 1 0 0 0 .444-1.344zm-3.993-2.488l-.481-2.788a1 1 0 0 0-1.971.34l.311 1.8-1.8.312a1 1 0 1 0 .341 1.97l2.787-.481a1 1 0 0 0 .813-1.153zm-3.252-2.86a1 1 0 0 0 .233-.728l-.235-2.819a1 1 0 0 0-1.994.166l.153 1.823-1.822.152a1 1 0 0 0 .082 2 .813.813 0 0 0 .084 0l2.818-.235a1 1 0 0 0 .681-.359zM10.5 43.562a1 1 0 0 0 .994-.9l.281-2.814a1 1 0 0 0-.9-1.095 1.012 1.012 0 0 0-1.094.9L9.6 41.469l-1.819-.182a1 1 0 1 0-.2 1.99l2.815.281c.039.003.072.004.104.004zm26.27 9.293a1 1 0 0 0-1.415 0l-2 2a1 1 0 0 0 0 1.415l2 2a1 1 0 0 0 1.415-1.415l-1.293-1.293 1.293-1.292a1 1 0 0 0 0-1.415zm5.057 2.245l-1.588-.908.907-1.587a1 1 0 1 0-1.736-.993l-1.4 2.456a1 1 0 0 0 .372 1.365l2.455 1.4a1 1 0 1 0 .993-1.736zm4.398-2.086l-1.631-.828.828-1.631a1 1 0 0 0-1.783-.905l-1.281 2.523a1 1 0 0 0 .439 1.344l2.522 1.28a1 1 0 1 0 .906-1.783zm4.075-3.663l-1.8-.312.311-1.8a1 1 0 0 0-1.971-.34l-.481 2.788a1 1 0 0 0 .815 1.155l2.788.481a1 1 0 0 0 .34-1.97zm2.973-3.933l-1.822-.152.152-1.823a1 1 0 0 0-.914-1.079.986.986 0 0 0-1.079.913l-.235 2.823a1 1 0 0 0 .913 1.079l2.819.235a.787.787 0 0 0 .084 0 1 1 0 0 0 .082-2zm3.005-4.006l-1.82.182-.181-1.821a1 1 0 0 0-1.99.2l.28 2.814a1 1 0 0 0 .995.9c.032 0 .066 0 .1-.005l2.814-.281a1 1 0 0 0-.2-1.99z"></path></g></g></svg>