<svg xmlns="http://www.w3.org/2000/svg" version="1.1" xlink="http://www.w3.org/1999/xlink" width="100%" height="100%" preserveAspectRatio="xMidYMid meet" viewBox="7.186891082255897e-8 9.227828496173682e-15 299.9966125488281 122.95175170898438" overflow="visible"><defs id="SvgjsDefs19642"></defs><g id="SvgjsG19643" transform="scale(0.6493506493506495)" opacity="1"><g id="SvgjsG19644" class="aaL9bWvFp" transform="translate(-1.323526351315099, 1.4210854715202004e-14) scale(1.8934568688341955)" light-content="false" non-strokable="false" fill="#5a7670"><path d="M44 0l43.301 25v50L44 100 .699 75V25z"></path></g><g id="SvgjsG19645" class="oToUyg4eZY" transform="translate(22.85023295269258, 26.652520090315495) scale(1.857310194635467)" light-content="true" non-strokable="false" fill="#ffffff"><path d="M12 29.25a7.712 7.712 0 0 0 .78-.041 9.334 9.334 0 0 1 6.614-7.09c0-.04.006-.079.006-.119a7.334 7.334 0 0 0-7.4-7.25 7.252 7.252 0 1 0 0 14.5zm27.325-7.113c0-.147 0-.294-.006-.442a7.507 7.507 0 0 0-7.461-7.012c-.109 0-.22 0-.33.006a7.137 7.137 0 0 0-6.849 7.449 9.329 9.329 0 0 1 6.548 7.12 7.369 7.369 0 0 0 1.245.053c.1 0 .2-.02.3-.028a9.329 9.329 0 0 1 6.553-7.146zm-24.304 6.474a7.335 7.335 0 0 0 3.958-4.223 7.341 7.341 0 0 0-3.958 4.223zm13.957-.001a7.333 7.333 0 0 0-3.842-4.167 7.493 7.493 0 0 0 2.016 2.949 7.638 7.638 0 0 0 1.826 1.218zm-14.372 2.271c0 .04-.006.079-.006.119a7.4 7.4 0 0 0 14.8 0v-.1a9.493 9.493 0 0 1-6.512-7.1 7.569 7.569 0 0 0-.888-.05 7.712 7.712 0 0 0-.78.041 9.334 9.334 0 0 1-6.614 7.09zm36.614-1.672a7.712 7.712 0 0 0 .78.041A7.252 7.252 0 1 0 44.6 22c0 .04.006.079.006.119a9.334 9.334 0 0 1 6.614 7.09zm-16.248-.465a7.094 7.094 0 0 0 4-4.355 7.336 7.336 0 0 0-4 4.355zm10.049-4.356a7.335 7.335 0 0 0 3.958 4.223 7.341 7.341 0 0 0-3.958-4.223zM34.6 30.983V31a7.4 7.4 0 0 0 14.8 0c0-.04-.006-.079-.006-.119a9.334 9.334 0 0 1-6.614-7.09 7.321 7.321 0 0 0-1.6.006 9.083 9.083 0 0 1-6.58 7.186zM28.707 52.73a1 1 0 0 0-1.414 1.415l1.293 1.293-1.293 1.292a1 1 0 1 0 1.414 1.415l2-2a1 1 0 0 0 0-1.415zm-4.055-1.245a1 1 0 1 0-1.736.993l.907 1.587-1.587.908a1 1 0 0 0 .5 1.868.988.988 0 0 0 .5-.132l2.456-1.4a1 1 0 0 0 .372-1.365zm-2.952.563l-1.28-2.523a1 1 0 1 0-1.783.905l.827 1.631-1.63.828a1 1 0 0 0 .9 1.783l2.522-1.28a1 1 0 0 0 .444-1.344zm-3.993-2.488l-.481-2.788a1 1 0 0 0-1.971.34l.311 1.8-1.8.312a1 1 0 1 0 .341 1.97l2.787-.481a1 1 0 0 0 .813-1.153zm-3.252-2.86a1 1 0 0 0 .233-.728l-.235-2.819a1 1 0 0 0-1.994.166l.153 1.823-1.822.152a1 1 0 0 0 .082 2 .813.813 0 0 0 .084 0l2.818-.235a1 1 0 0 0 .681-.359zM10.5 43.562a1 1 0 0 0 .994-.9l.281-2.814a1 1 0 0 0-.9-1.095 1.012 1.012 0 0 0-1.094.9L9.6 41.469l-1.819-.182a1 1 0 1 0-.2 1.99l2.815.281c.039.003.072.004.104.004zm26.27 9.293a1 1 0 0 0-1.415 0l-2 2a1 1 0 0 0 0 1.415l2 2a1 1 0 0 0 1.415-1.415l-1.293-1.293 1.293-1.292a1 1 0 0 0 0-1.415zm5.057 2.245l-1.588-.908.907-1.587a1 1 0 1 0-1.736-.993l-1.4 2.456a1 1 0 0 0 .372 1.365l2.455 1.4a1 1 0 1 0 .993-1.736zm4.398-2.086l-1.631-.828.828-1.631a1 1 0 0 0-1.783-.905l-1.281 2.523a1 1 0 0 0 .439 1.344l2.522 1.28a1 1 0 1 0 .906-1.783zm4.075-3.663l-1.8-.312.311-1.8a1 1 0 0 0-1.971-.34l-.481 2.788a1 1 0 0 0 .815 1.155l2.788.481a1 1 0 0 0 .34-1.97zm2.973-3.933l-1.822-.152.152-1.823a1 1 0 0 0-.914-1.079.986.986 0 0 0-1.079.913l-.235 2.823a1 1 0 0 0 .913 1.079l2.819.235a.787.787 0 0 0 .084 0 1 1 0 0 0 .082-2zm3.005-4.006l-1.82.182-.181-1.821a1 1 0 0 0-1.99.2l.28 2.814a1 1 0 0 0 .995.9c.032 0 .066 0 .1-.005l2.814-.281a1 1 0 0 0-.2-1.99z"></path></g><g id="SvgjsG19646" class="text" transform="translate(221.73474707536832, 112.50331883003244) scale(1)" light-content="false" fill="#4a4a4a"><path d="M-33.03 -6.27L-33.03 0L-7.57 0L-7.57 -6.27L-25.84 -6.27L-23.14 -8.1L-7.57 -27.48L-7.57 -33.75L-33.03 -33.75L-33.03 -27.48L-14.75 -27.48L-17.55 -25.51Z M21.65 -27.48L21.65 -33.75L-6.9 -33.75L-6.9 -27.48L3.81 -27.48L3.81 0L10.95 0L10.95 -27.48Z M18.37 -16.88L18.37 -10.9L31.53 -10.9L31.53 -16.88Z"></path></g><g id="SvgjsG19647" class="text" transform="translate(360.3547700608412, 112.50827762661945) scale(1)" light-content="false" fill="#5a7670"><path d="M-101.06 -16.88C-101.06 -14.27 -100.74 -11.89 -100.1 -9.74C-99.46 -7.59 -98.48 -5.74 -97.18 -4.19C-95.88 -2.65 -94.26 -1.45 -92.31 -0.6C-90.37 0.25 -88.09 0.68 -85.49 0.68C-83.08 0.68 -80.91 0.28 -78.98 -0.51C-77.05 -1.29 -75.41 -2.43 -74.06 -3.93C-72.71 -5.42 -71.67 -7.26 -70.95 -9.45C-70.23 -11.64 -69.87 -14.11 -69.87 -16.88C-69.87 -19.48 -70.2 -21.86 -70.86 -24.01C-71.51 -26.17 -72.49 -28.01 -73.8 -29.56C-75.1 -31.1 -76.72 -32.3 -78.67 -33.15C-80.61 -34 -82.89 -34.43 -85.49 -34.43C-87.93 -34.43 -90.12 -34.03 -92.05 -33.25C-93.98 -32.46 -95.61 -31.32 -96.94 -29.82C-98.27 -28.33 -99.3 -26.49 -100 -24.3C-100.71 -22.12 -101.06 -19.64 -101.06 -16.88ZM-93.49 -16.88C-93.49 -20.8 -92.79 -23.66 -91.37 -25.46C-89.96 -27.26 -88 -28.16 -85.49 -28.16C-84.04 -28.16 -82.81 -27.88 -81.8 -27.32C-80.79 -26.75 -79.95 -25.96 -79.29 -24.95C-78.63 -23.94 -78.16 -22.74 -77.87 -21.36C-77.58 -19.98 -77.44 -18.48 -77.44 -16.88C-77.44 -12.83 -78.14 -9.93 -79.56 -8.2C-80.97 -6.46 -82.95 -5.59 -85.49 -5.59C-86.87 -5.59 -88.07 -5.87 -89.08 -6.41C-90.09 -6.96 -90.92 -7.73 -91.56 -8.73C-92.21 -9.72 -92.69 -10.91 -93.01 -12.3C-93.33 -13.68 -93.49 -15.2 -93.49 -16.88Z M-41.56 0L-41.56 -6.27L-57.67 -6.27L-57.67 -33.75L-64.8 -33.75L-64.8 0Z M-35.83 -12.44L-35.83 0L-28.69 0L-28.69 -12.49L-16.63 -33.75L-24.3 -33.75L-30.81 -21.46L-31.63 -17.74L-31.87 -17.74L-32.64 -21.36L-39.39 -33.75L-47.88 -33.75Z M14.85 -16.92L14.85 0L21.99 0L21.99 -33.75L15.57 -33.75L6.27 -18.27L4.68 -14.47L4.44 -14.47L2.6 -18.18L-7.14 -33.75L-13.6 -33.75L-13.6 0L-6.85 0L-6.85 -16.97L-7.86 -23.87L-7.57 -23.87L-5.3 -18.66L2.99 -6.03L5.21 -6.03L13.02 -18.61L15.33 -23.92L15.62 -23.92Z M28.26 -33.41L28.26 0L35.39 0L35.39 -11.38C35.58 -11.35 35.87 -11.32 36.26 -11.28C36.65 -11.25 37.05 -11.23 37.49 -11.21C37.92 -11.19 38.33 -11.19 38.72 -11.19L39.54 -11.19C41.34 -11.19 43.09 -11.4 44.79 -11.84C46.5 -12.27 48.02 -12.95 49.35 -13.89C50.68 -14.82 51.75 -16.03 52.56 -17.53C53.36 -19.02 53.76 -20.83 53.76 -22.95C53.76 -25.36 53.3 -27.3 52.36 -28.76C51.43 -30.22 50.23 -31.37 48.77 -32.19C47.31 -33 45.66 -33.55 43.83 -33.82C42 -34.1 40.18 -34.23 38.38 -34.23C36.61 -34.23 34.84 -34.16 33.08 -34.02C31.31 -33.87 29.7 -33.67 28.26 -33.41ZM38.86 -27.97C39.76 -27.97 40.66 -27.9 41.54 -27.77C42.42 -27.64 43.21 -27.4 43.9 -27.05C44.59 -26.7 45.15 -26.21 45.57 -25.58C45.98 -24.95 46.19 -24.12 46.19 -23.1C46.19 -21.87 45.97 -20.9 45.52 -20.18C45.07 -19.46 44.48 -18.89 43.76 -18.47C43.03 -18.05 42.21 -17.78 41.27 -17.65C40.34 -17.52 39.41 -17.45 38.48 -17.45C38.32 -17.45 38.1 -17.46 37.83 -17.48C37.55 -17.49 37.26 -17.51 36.93 -17.53C36.61 -17.54 36.31 -17.57 36.02 -17.6C35.73 -17.63 35.52 -17.66 35.39 -17.7L35.39 -27.72C35.78 -27.82 36.28 -27.89 36.91 -27.92C37.54 -27.95 38.19 -27.97 38.86 -27.97Z M60.8 -29.89L60.8 -3.86L56.94 -3.86L56.94 0L71.8 0L71.8 -3.86L67.94 -3.86L67.94 -29.89L71.8 -29.89L71.8 -33.75L56.94 -33.75L56.94 -29.89Z M101.64 -1.45L100.24 -7.14C99.41 -6.69 98.45 -6.32 97.37 -6.03C96.3 -5.74 94.97 -5.59 93.4 -5.59C91.69 -5.59 90.2 -5.87 88.91 -6.41C87.63 -6.96 86.57 -7.73 85.73 -8.73C84.89 -9.72 84.27 -10.91 83.85 -12.3C83.43 -13.68 83.22 -15.2 83.22 -16.88C83.22 -18.77 83.46 -20.43 83.92 -21.84C84.39 -23.26 85.04 -24.43 85.87 -25.36C86.71 -26.29 87.72 -26.99 88.89 -27.46C90.06 -27.93 91.37 -28.16 92.82 -28.16C94.46 -28.16 95.82 -28.08 96.89 -27.92C97.97 -27.76 98.91 -27.5 99.71 -27.15L101.11 -33.13C100.18 -33.48 99 -33.78 97.57 -34.04C96.14 -34.3 94.38 -34.43 92.29 -34.43C90.39 -34.43 88.46 -34.12 86.5 -33.51C84.54 -32.9 82.76 -31.91 81.15 -30.55C79.54 -29.18 78.22 -27.38 77.2 -25.15C76.17 -22.91 75.65 -20.15 75.65 -16.88C75.65 -13.73 76.1 -11.04 77 -8.82C77.9 -6.61 79.12 -4.79 80.64 -3.38C82.17 -1.96 83.92 -0.93 85.9 -0.29C87.88 0.35 89.94 0.68 92.09 0.68C93.93 0.68 95.71 0.51 97.45 0.17C99.18 -0.17 100.58 -0.71 101.64 -1.45Z"></path></g></g></svg>